# xmcd
# 
# Track frame offsets:
#     150
#     21917
#     41915
#     58300
#     80720
#     99445
#     117375
#     136512
#     154740
#     181970
#     199040
#     214177
#     230980
#     250330
#     265855
#     282280
#     302772
#     316480
#     332285
# 
# Disc length: 4626
# 
# Revision: 18
# Processed by: cddbd v1.5.2PL0 Copyright (c) Steve Scherf et al.
# Submitted via: fre:ac v1.0.31
# 
DISCID=17121013
DTITLE=Lionel Richie - Truly The Love Songs
DYEAR=1997
DGENRE=R&B
TTITLE0=My Destiny
TTITLE1=Endless Love (With Diana Ross)
TTITLE2=Three Times A Lady (With The Commodores)
TTITLE3=Don't Wanna Lose You
TTITLE4=Hello
TTITLE5=Sail On (With The Commodores)
TTITLE6=Easy (With The Commodores)
TTITLE7=Say You, Say Me
TTITLE8=Do It To Me
TTITLE9=Penny Lover
TTITLE10=Truly
TTITLE11=Still (With The Commodores)
TTITLE12=Love Will Conquer All
TTITLE13=Sweet Love (With The Commodores)
TTITLE14=Ballerina Girl
TTITLE15=Still In Love
TTITLE16=Oh No (With The Commodores)
TTITLE17=Just To Be Close To You (With The Commodores)
TTITLE18=Stuck On You
EXTD=YEAR: 1997
EXTT0=
EXTT1=
EXTT2=
EXTT3=
EXTT4=
EXTT5=
EXTT6=
EXTT7=
EXTT8=
EXTT9=
EXTT10=
EXTT11=
EXTT12=
EXTT13=
EXTT14=
EXTT15=
EXTT16=
EXTT17=
EXTT18=
PLAYORDER=
